<svg width="24" height="24" viewBox="0 0 24 24" fill="none" xmlns="http://www.w3.org/2000/svg">
<path d="M3.29594 20.602L9.65994 14.238M17.6739 11.408L15.7689 17.124C15.7384 17.2154 15.6863 17.2981 15.617 17.3652C15.5477 17.4322 15.4633 17.4815 15.3709 17.509L3.69294 20.981C3.58773 21.0122 3.47597 21.014 3.36981 20.9862C3.26365 20.9583 3.16717 20.9019 3.09087 20.823C3.01456 20.7441 2.96135 20.6458 2.93703 20.5388C2.91272 20.4318 2.91822 20.3201 2.95294 20.216L6.74494 8.842C6.77212 8.76033 6.81655 8.68547 6.87521 8.62249C6.93388 8.55951 7.0054 8.50989 7.08494 8.477L12.4719 6.259C12.5815 6.21377 12.7019 6.20197 12.8181 6.22511C12.9343 6.24825 13.0411 6.30527 13.1249 6.389L17.5289 10.794C17.6077 10.8728 17.663 10.972 17.6887 11.0804C17.7143 11.1888 17.7092 11.3023 17.6739 11.408Z" stroke="black" stroke-width="1.5" stroke-linecap="round" stroke-linejoin="round"/>
<path d="M18.4029 3.182L20.7669 5.546C20.9446 5.71596 21.0865 5.91969 21.1843 6.14524C21.2822 6.37079 21.334 6.61361 21.3367 6.85945C21.3394 7.10529 21.293 7.3492 21.2001 7.57686C21.1073 7.80451 20.9699 8.01133 20.7961 8.18518C20.6223 8.35903 20.4154 8.49639 20.1878 8.58922C19.9601 8.68205 19.7162 8.72847 19.4704 8.72575C19.2245 8.72303 18.9817 8.67123 18.7562 8.57339C18.5306 8.47555 18.3269 8.33365 18.1569 8.156L15.7919 5.792C15.4584 5.44334 15.2746 4.97794 15.2799 4.49545C15.2852 4.01296 15.4793 3.55174 15.8205 3.21054C16.1617 2.86935 16.6229 2.67531 17.1054 2.66997C17.5879 2.66464 18.0543 2.84843 18.4029 3.182Z" fill="black" stroke="black" stroke-width="1.5" stroke-linecap="round" stroke-linejoin="round"/>
<path d="M11.7808 12.116C11.6425 11.9727 11.4769 11.8585 11.2939 11.7799C11.1109 11.7012 10.9141 11.6599 10.7149 11.6581C10.5158 11.6564 10.3183 11.6944 10.1339 11.7698C9.94956 11.8452 9.78208 11.9566 9.64124 12.0974C9.50041 12.2383 9.38903 12.4057 9.3136 12.5901C9.23818 12.7744 9.20023 12.9719 9.20196 13.1711C9.20369 13.3703 9.24507 13.5671 9.32368 13.7501C9.4023 13.9331 9.51657 14.0986 9.65984 14.237C9.94274 14.5103 10.3216 14.6614 10.7149 14.658C11.1082 14.6546 11.4845 14.4969 11.7626 14.2187C12.0407 13.9406 12.1984 13.5644 12.2018 13.1711C12.2053 12.7778 12.0541 12.3989 11.7808 12.116Z" stroke="black" stroke-width="1.5" stroke-linecap="round" stroke-linejoin="round"/>
</svg>
